# xmcd
#
# Track frame offsets:
#	150
#	16880
#	41333
#	61846
#	78838
#	94045
#	111574
#	129200
#	148638
#	170568
#	187548
#	205521
#
# Disc length: 3053 seconds
#
# Revision: 15
# Processed by: cddbd v1.5.2PL0 Copyright (c) Steve Scherf et al.
# Submitted via: EasyCDDAExtractor 15.3.0.1
#
DISCID=8c0beb0c
DTITLE=Madonna - MDNA
DYEAR=2012
DGENRE=Pop
TTITLE0=Girl Gone Wild
TTITLE1=Gang Bang
TTITLE2=I'm Addicted
TTITLE3=Turn Up The Radio
TTITLE4=Give Me All Your Luvin'
TTITLE5=Some Girls
TTITLE6=Superstar
TTITLE7=I Don't Give A
TTITLE8=I'm A Sinner
TTITLE9=Love Spent
TTITLE10=Masterpiece
TTITLE11=Falling Free
EXTD=Deluxe Edition, CD 1
EXTT0=
EXTT1=
EXTT2=
EXTT3=
EXTT4=
EXTT5=
EXTT6=
EXTT7=
EXTT8=
EXTT9=
EXTT10=
EXTT11=
PLAYORDER=
